<svg width="20" height="22" viewBox="0 0 20 22" fill="none" xmlns="http://www.w3.org/2000/svg">
<path fill-rule="evenodd" clip-rule="evenodd" d="M10 1.75C9.4033 1.75 8.831 1.98705 8.40904 2.40901C7.98709 2.83097 7.75003 3.40326 7.75003 4V4.26C8.30703 4.25 8.91803 4.25 9.59003 4.25H10.411C11.081 4.25 11.693 4.25 12.251 4.26V4C12.251 3.70444 12.1928 3.41178 12.0797 3.13873C11.9665 2.86568 11.8007 2.6176 11.5917 2.40866C11.3826 2.19971 11.1345 2.034 10.8614 1.92098C10.5883 1.80797 10.2956 1.74987 10 1.75ZM13.75 4.328V4C13.75 3.00544 13.3549 2.05161 12.6517 1.34835C11.9484 0.645088 10.9946 0.25 10 0.25C9.00547 0.25 8.05164 0.645088 7.34838 1.34835C6.64512 2.05161 6.25003 3.00544 6.25003 4V4.328C6.10703 4.34 5.97003 4.354 5.83603 4.371C4.82603 4.496 3.99403 4.758 3.28603 5.345C2.57903 5.932 2.16803 6.702 1.85903 7.672C1.55903 8.612 1.33303 9.819 1.04903 11.338L1.02803 11.448C0.626034 13.591 0.310033 15.28 0.251033 16.611C0.191033 17.976 0.395033 19.106 1.16503 20.033C1.93503 20.961 3.00803 21.369 4.36003 21.562C5.68003 21.75 7.39703 21.75 9.57803 21.75H10.423C12.603 21.75 14.321 21.75 15.64 21.562C16.992 21.369 18.066 20.961 18.836 20.033C19.606 19.106 19.808 17.976 19.749 16.611C19.691 15.28 19.374 13.591 18.972 11.448L18.952 11.338C18.667 9.819 18.44 8.611 18.142 7.672C17.832 6.702 17.422 5.932 16.714 5.345C16.007 4.758 15.174 4.495 14.164 4.371C14.0263 4.35411 13.8883 4.33977 13.75 4.328ZM6.02003 5.86C5.16503 5.965 4.64803 6.164 4.24403 6.5C3.84103 6.834 3.55003 7.305 3.28803 8.127C3.02103 8.967 2.81003 10.085 2.51403 11.664C2.09803 13.881 1.80303 15.464 1.75003 16.677C1.69803 17.867 1.89003 18.557 2.31903 19.076C2.74903 19.593 3.39203 19.908 4.57203 20.076C5.77203 20.248 7.38403 20.25 9.64003 20.25H10.36C12.617 20.25 14.227 20.248 15.428 20.077C16.608 19.908 17.251 19.593 17.681 19.076C18.111 18.558 18.302 17.868 18.251 16.676C18.197 15.465 17.902 13.881 17.486 11.664C17.19 10.084 16.98 8.968 16.712 8.127C16.45 7.305 16.16 6.834 15.756 6.499C15.352 6.164 14.836 5.965 13.98 5.859C13.104 5.751 11.967 5.75 10.36 5.75H9.64003C8.03303 5.75 6.89603 5.751 6.02003 5.86Z" fill="#252525"/>
</svg>
