<svg width="13" height="12" viewBox="0 0 13 12" fill="none" xmlns="http://www.w3.org/2000/svg">
<path d="M12.125 6C12.125 6.12432 12.0756 6.24355 11.9877 6.33146C11.8998 6.41936 11.7806 6.46875 11.6562 6.46875H6.96875V11.1562C6.96875 11.2806 6.91936 11.3998 6.83146 11.4877C6.74355 11.5756 6.62432 11.625 6.5 11.625C6.37568 11.625 6.25645 11.5756 6.16854 11.4877C6.08064 11.3998 6.03125 11.2806 6.03125 11.1562V6.46875H1.34375C1.21943 6.46875 1.1002 6.41936 1.01229 6.33146C0.924386 6.24355 0.875 6.12432 0.875 6C0.875 5.87568 0.924386 5.75645 1.01229 5.66854C1.1002 5.58064 1.21943 5.53125 1.34375 5.53125H6.03125V0.84375C6.03125 0.71943 6.08064 0.600201 6.16854 0.512294C6.25645 0.424386 6.37568 0.375 6.5 0.375C6.62432 0.375 6.74355 0.424386 6.83146 0.512294C6.91936 0.600201 6.96875 0.71943 6.96875 0.84375V5.53125H11.6562C11.7806 5.53125 11.8998 5.58064 11.9877 5.66854C12.0756 5.75645 12.125 5.87568 12.125 6Z" fill="#1D1D1B"/>
</svg>
