<svg width="20" height="22" viewBox="0 0 20 22" fill="none" xmlns="http://www.w3.org/2000/svg">
<path d="M1 21V19.75C1 17.4294 1.92187 15.2038 3.56282 13.5628C5.20376 11.9219 7.42936 11 9.75 11M9.75 11C12.0706 11 14.2962 11.9219 15.9372 13.5628C17.5781 15.2038 18.5 17.4294 18.5 19.75V21M9.75 11C11.0761 11 12.3479 10.4732 13.2855 9.53553C14.2232 8.59785 14.75 7.32608 14.75 6C14.75 4.67392 14.2232 3.40215 13.2855 2.46447C12.3479 1.52678 11.0761 1 9.75 1C8.42392 1 7.15215 1.52678 6.21447 2.46447C5.27678 3.40215 4.75 4.67392 4.75 6C4.75 7.32608 5.27678 8.59785 6.21447 9.53553C7.15215 10.4732 8.42392 11 9.75 11Z" stroke="#252525" stroke-width="1.5" stroke-linecap="round" stroke-linejoin="round"/>
</svg>
